# xmcd
#
# Track frame offsets:
#	150
#	11423
#	24177
#	33401
#	45026
#	66185
#	80221
#	94877
#	103803
#	113287
#	126065
#	138612
#	153236
#	168475
#	184582
#	191437
#	207111
#	213405
#	226913
#	239316
#	257228
#	271549
#	285660
#	299977
#	311762
#
# Disc length: 4324 seconds
#
# Revision: 0
# Processed by: cddbd v1.5.2PL0 Copyright (c) Steve Scherf et al.
# Submitted via: EasyCDDAExtractor 16.0.6.1
#
DISCID=5a10e219
DTITLE=Varios - C-077 Transit-Music Country Internet Nº 5
DYEAR=1900
DGENRE=Country
TTITLE0=Are You Washed In The Blood ? - Are You Washed In The Blood ?
TTITLE1=A Heartbreak Is Bigger In Texas - A Heartbreak Is Bigger In Texas
TTITLE2=Big Black Ford - Big Black Ford
TTITLE3=Big Sky Country - Big Sky Country
TTITLE4=Don Herman - Blister Calluses
TTITLE5=John Denver - Take Me Home Country Roads
TTITLE6=Honky Tonk Jukebox Band - Coyote Ugly
TTITLE7=Kirk Rundstrom - Danger
TTITLE8=Mickey Harris - Deep River
TTITLE9=The Home Rangers - Glue In The Saddle
TTITLE10=Honky Tonk Jukebox Band - Hey Honey
TTITLE11=Dough Wayne - Hey Love No Fair
TTITLE12=Oklahoma Prune Pickers - It's All Uphill
TTITLE13=Honky Tonk Jukebox Band - Itty Bitty Titties
TTITLE14=Homemade - Jackrabit
TTITLE15=Stikshifft Rocketship - Jackrabit
TTITLE16=Roger McGuinn - John Rilley
TTITLE17=Carolina Grass - Lonesome Road Blues
TTITLE18=R.T. Rinehart - Oh Susana
TTITLE19=Shirley Frederickson - Rockin' Chairt Partner
TTITLE20=Honky Tonk Jukebox Band - Sittin' In My Face
TTITLE21=Mickey Harris - South Bound Train
TTITLE22=Mickey Harris - Take This Hammer
TTITLE23=Red Johnson - There Will Always Be Cowboys
TTITLE24=Disfuncionel Family Band - Wen I Saw Mamma Kissing Santa
EXTD=
EXTT0=
EXTT1=
EXTT2=
EXTT3=
EXTT4=
EXTT5=
EXTT6=
EXTT7=
EXTT8=
EXTT9=
EXTT10=
EXTT11=
EXTT12=
EXTT13=
EXTT14=
EXTT15=
EXTT16=
EXTT17=
EXTT18=
EXTT19=
EXTT20=
EXTT21=
EXTT22=
EXTT23=
EXTT24=
PLAYORDER=
